<svg width="48" height="48" viewBox="0 0 24 24" fill="none" xmlns="http://www.w3.org/2000/svg">
  <defs>
    <linearGradient id="eyeGradient" x1="0" y1="0" x2="1" y2="1">
      <stop offset="0%" stop-color="#a259ff"/>
      <stop offset="100%" stop-color="#4ec3ff"/>
    </linearGradient>
  </defs>
  <path d="M3 3L21 21" stroke="url(#eyeGradient)" stroke-width="1.5" stroke-linecap="round" stroke-linejoin="round"/>
  <path d="M10.58 10.58C10.21 10.94 10 11.45 10 12C10 13.1 10.9 14 12 14C12.55 14 13.06 13.79 13.42 13.42M9.36 5.51C10.19 5.18 11.08 5 12 5C16 5 19.45 7.72 21 12C20.45 13.53 19.5 14.88 18.27 15.95M6.11 6.11C4.21 7.58 2.88 9.64 2 12C2.81 14.24 4.3 16.17 6.11 17.49C7.61 18.55 9.37 19.15 11.21 19.28C12.63 19.39 14.05 19.18 15.36 18.68" stroke="url(#eyeGradient)" stroke-width="1.5" stroke-linecap="round" stroke-linejoin="round"/>
</svg>
