<svg width="61" height="68" viewBox="0 0 61 68" fill="none" xmlns="http://www.w3.org/2000/svg">
<g clip-path="url(#clip0_1_20)">
<g clip-path="url(#clip1_1_20)">
<g clip-path="url(#clip2_1_20)">
<path d="M52.5679 30.6118H8.32099C4.83 30.6118 2 33.4925 2 37.046V59.5658C2 63.1193 4.83 66 8.32099 66H52.5679C56.0589 66 58.8889 63.1193 58.8889 59.5658V37.046C58.8889 33.4925 56.0589 30.6118 52.5679 30.6118Z" stroke="#6E0ABD" stroke-width="4" stroke-linecap="round" stroke-linejoin="round"/>
<path d="M14.8 30.6118V17.8954C14.8 13.6797 16.4483 9.63663 19.3822 6.65566C22.3161 3.67469 26.2953 2 30.4444 2C34.5936 2 38.5728 3.67469 41.5067 6.65566C44.4406 9.63663 46.0889 13.6797 46.0889 17.8954V30.6118" stroke="#6E0ABD" stroke-width="4" stroke-linecap="round" stroke-linejoin="round"/>
</g>
</g>
</g>
<defs>
<clipPath id="clip0_1_20">
<rect width="61" height="68" fill="white"/>
</clipPath>
<clipPath id="clip1_1_20">
<rect width="61" height="68" fill="white"/>
</clipPath>
<clipPath id="clip2_1_20">
<rect width="61" height="68" fill="white"/>
</clipPath>
</defs>
</svg>
