<svg width="90" height="90" viewBox="0 0 49 49" fill="none" xmlns="http://www.w3.org/2000/svg">
<g clip-path="url(#clip0_1_33)">
<g clip-path="url(#clip1_1_33)">
<path d="M29.4465 32.309C29.3248 32.309 29.205 32.2793 29.0975 32.2225L24.0203 29.5529L18.9428 32.2226C18.819 32.2877 18.6794 32.3168 18.5398 32.3068C18.4003 32.2967 18.2663 32.2478 18.1531 32.1656C18.0398 32.0834 17.9519 31.9711 17.8991 31.8415C17.8463 31.7119 17.8309 31.5702 17.8544 31.4323L18.8242 25.778L14.7164 21.7738C14.6162 21.6761 14.5454 21.5524 14.5119 21.4166C14.4784 21.2808 14.4835 21.1383 14.5268 21.0052C14.57 20.8722 14.6496 20.7539 14.7566 20.6637C14.8635 20.5736 14.9936 20.5151 15.132 20.495L20.809 19.6696L23.3476 14.5258C23.601 14.0131 24.4396 14.0131 24.6931 14.5258L27.2316 19.6696L32.9083 20.495C33.0467 20.5151 33.1768 20.5736 33.2837 20.6637C33.3907 20.7539 33.4703 20.8722 33.5135 21.0052C33.5568 21.1383 33.5619 21.2808 33.5284 21.4166C33.4949 21.5524 33.4241 21.6761 33.3239 21.7738L29.2161 25.778L30.1859 31.4323C30.2042 31.5399 30.1988 31.6503 30.1702 31.7556C30.1415 31.861 30.0901 31.9588 30.0197 32.0423C29.9493 32.1257 29.8616 32.1929 29.7625 32.2389C29.6635 32.285 29.5557 32.3089 29.4465 32.309ZM16.8517 21.7606L20.1539 24.9796C20.2408 25.0645 20.3059 25.1693 20.3434 25.2849C20.381 25.4004 20.39 25.5234 20.3696 25.6432L19.5899 30.1879L23.6713 28.0419C23.7788 27.9849 23.8986 27.9551 24.0203 27.9551C24.142 27.9551 24.2618 27.9849 24.3693 28.0419L28.4504 30.1879L27.6711 25.6432C27.6507 25.5234 27.6596 25.4004 27.6972 25.2849C27.7348 25.1693 27.7998 25.0645 27.8868 24.9796L31.1885 21.7606L26.6255 21.0971C26.5052 21.0796 26.3909 21.0331 26.2926 20.9617C26.1942 20.8902 26.1147 20.7959 26.0608 20.6869L24.0203 16.5524L21.9798 20.687C21.926 20.796 21.8464 20.8903 21.7481 20.9617C21.6497 21.0332 21.5354 21.0796 21.4151 21.0971L16.8517 21.7606Z" fill="#D7C30E"/>
<path d="M24.0203 37.6651C16.5349 37.6651 10.4452 31.575 10.4452 24.0897C10.4452 16.6043 16.5349 10.515 24.0203 10.515C31.5056 10.515 37.5953 16.6044 37.5953 24.0897C37.5953 31.5751 31.5056 37.6651 24.0203 37.6651ZM24.0203 12.015C21.632 12.015 19.2974 12.7232 17.3117 14.05C15.3259 15.3769 13.7782 17.2627 12.8643 19.4692C11.9504 21.6757 11.7113 24.1036 12.1772 26.4459C12.6432 28.7883 13.7933 30.9398 15.482 32.6285C17.1708 34.3173 19.3224 35.4673 21.6648 35.9331C24.0071 36.399 26.435 36.1598 28.6415 35.2459C30.8479 34.3319 32.7337 32.7841 34.0605 30.7983C35.3873 28.8125 36.0954 26.4779 36.0953 24.0897C36.0916 20.8884 34.8182 17.8192 32.5545 15.5556C30.2907 13.292 27.2216 12.0186 24.0203 12.015Z" fill="#D7C30E"/>
<path d="M27.7593 43.173C27.293 43.1726 26.8346 43.052 26.4285 42.8229L24.6132 41.8026C24.4321 41.701 24.2279 41.6477 24.0203 41.6477C23.8126 41.6477 23.6085 41.701 23.4274 41.8026L21.611 42.8229C21.025 43.1539 20.3366 43.2544 19.6805 43.1049C19.0243 42.9554 18.4475 42.5665 18.0628 42.0143L16.8674 40.3063C16.7471 40.1379 16.5863 40.0027 16.3998 39.9129C16.2134 39.8232 16.0073 39.7819 15.8007 39.7928L13.7191 39.921C13.0478 39.9656 12.3841 39.7576 11.8582 39.338C11.3324 38.9183 10.9824 38.3172 10.877 37.6527L10.5412 35.5961C10.5084 35.3907 10.423 35.1973 10.2932 35.0348C10.1634 34.8723 9.99372 34.7462 9.80068 34.6688L7.87294 33.8866C7.24841 33.6351 6.74025 33.1595 6.44797 32.553C6.15568 31.9465 6.10033 31.2527 6.29274 30.6076L6.88198 28.6095C6.93988 28.4107 6.94612 28.2005 6.90011 27.9986C6.8541 27.7968 6.75736 27.61 6.61904 27.4559L5.21974 25.9076C4.76786 25.4101 4.51746 24.7622 4.5174 24.0902C4.51733 23.4181 4.76759 22.7701 5.21938 22.2726L6.6194 20.7235C6.75762 20.5692 6.85429 20.3823 6.90029 20.1804C6.9463 19.9784 6.94012 19.7681 6.88234 19.5692L6.29274 17.5712C6.10049 16.926 6.15593 16.2323 6.44819 15.6258C6.74045 15.0193 7.24851 14.5437 7.87294 14.2921L9.80251 13.5091C9.99438 13.4305 10.163 13.3043 10.2924 13.1422C10.4218 12.9802 10.5077 12.7879 10.5419 12.5834L10.8781 10.526C10.9833 9.86135 11.3333 9.2601 11.8593 8.84037C12.3852 8.42065 13.0492 8.2128 13.7206 8.25767L15.8021 8.38658C16.009 8.39982 16.2159 8.35945 16.4026 8.26938C16.5893 8.17931 16.7497 8.04259 16.8682 7.87242L18.0632 6.16588C18.4477 5.61321 19.0247 5.22403 19.6812 5.07459C20.3376 4.92516 21.0263 5.02624 21.6121 5.35803L23.4271 6.37756C23.6086 6.47843 23.8128 6.53137 24.0205 6.53137C24.2282 6.53137 24.4324 6.47843 24.6139 6.37756L26.4292 5.35729C27.0151 5.0262 27.7034 4.92551 28.3596 5.07491C29.0158 5.22431 29.5926 5.61306 29.9774 6.16515L31.1732 7.87318C31.2922 8.0426 31.4526 8.17873 31.6392 8.2686C31.8257 8.35847 32.0321 8.3991 32.2388 8.3866L34.3211 8.25844C34.9917 8.21702 35.6538 8.42616 36.179 8.84528C36.7042 9.2644 37.0549 9.86364 37.1633 10.5267L37.4994 12.5841C37.5336 12.7887 37.6194 12.9812 37.7488 13.1434C37.8782 13.3055 38.0469 13.4319 38.2388 13.5106L40.1672 14.2929C40.7919 14.5444 41.3002 15.02 41.5926 15.6267C41.885 16.2334 41.9403 16.9273 41.7478 17.5726L41.1586 19.57C41.1006 19.7687 41.0943 19.9789 41.1402 20.1808C41.1862 20.3827 41.2829 20.5695 41.4211 20.7235L42.8204 22.2719C43.2722 22.7694 43.5225 23.4173 43.5226 24.0893C43.5227 24.7613 43.2725 25.4093 42.8208 25.9069L41.4215 27.4559C41.2831 27.6101 41.1863 27.797 41.1402 27.9989C41.0941 28.2009 41.1003 28.4113 41.1582 28.6102L41.7475 30.6083C41.94 31.2535 41.8846 31.9473 41.5924 32.5538C41.3001 33.1603 40.7918 33.6359 40.1673 33.8873L38.2381 34.6703C38.046 34.7489 37.8773 34.8753 37.7478 35.0375C37.6184 35.1996 37.5325 35.3921 37.4983 35.5968L37.1625 37.6534C37.0549 38.317 36.7042 38.9168 36.1787 39.3361C35.6532 39.7554 34.9905 39.9641 34.3196 39.9217L32.2388 39.7936C32.0317 39.7806 31.8248 39.821 31.638 39.9111C31.4511 40.0011 31.2905 40.1377 31.1716 40.3077L29.9774 42.0135C29.7286 42.3713 29.3969 42.6636 29.0107 42.8655C28.6244 43.0673 28.1951 43.1728 27.7593 43.173ZM24.0203 40.1495C24.4853 40.1489 24.9426 40.2677 25.3485 40.4945L27.1635 41.5148C27.4251 41.6632 27.7327 41.7084 28.026 41.6416C28.3192 41.5748 28.5769 41.4008 28.7484 41.1537L29.943 39.4471C30.2109 39.0686 30.5707 38.7644 30.9885 38.5631C31.4063 38.3618 31.8684 38.2701 32.3314 38.2965L34.4122 38.4247C34.7122 38.4449 35.0088 38.3522 35.2439 38.1647C35.4789 37.9773 35.6353 37.7087 35.6823 37.4117L36.0181 35.3551C36.0945 34.8968 36.2867 34.4656 36.5766 34.1025C36.8664 33.7394 37.2442 33.4563 37.6741 33.2801L39.6029 32.4972C39.8819 32.385 40.1088 32.1726 40.2394 31.9018C40.37 31.631 40.3948 31.3212 40.309 31.0331L39.7197 29.035C39.59 28.5897 39.576 28.1186 39.679 27.6663C39.7821 27.2141 39.9988 26.7955 40.3086 26.4503L41.7075 24.9019L41.7079 24.9012C41.9096 24.6789 42.0213 24.3894 42.0212 24.0893C42.0212 23.7891 41.9093 23.4997 41.7075 23.2775L40.3086 21.7298C39.9988 21.3846 39.7822 20.9661 39.6792 20.5138C39.5762 20.0615 39.5903 19.5905 39.7201 19.1452L40.3093 17.1478C40.3953 16.8596 40.3705 16.5496 40.2398 16.2786C40.1092 16.0076 39.882 15.7952 39.6029 15.683L37.6748 14.9008C37.2449 14.7246 36.8672 14.4416 36.5774 14.0784C36.2876 13.7153 36.0955 13.2841 36.0192 12.8258L35.683 10.7684C35.6334 10.4729 35.4764 10.2061 35.2422 10.0191C35.0079 9.83221 34.7129 9.73833 34.4137 9.7555L32.3314 9.88368C31.8685 9.91186 31.406 9.82097 30.9882 9.61968C30.5703 9.41839 30.211 9.1134 29.9445 8.73381L28.7488 7.02575C28.5768 6.77938 28.3192 6.6059 28.0262 6.53914C27.7333 6.47239 27.4259 6.51714 27.1642 6.66467L25.3482 7.68568C24.9422 7.91191 24.4852 8.03065 24.0205 8.03065C23.5557 8.03065 23.0987 7.91191 22.6928 7.68568L20.8771 6.6654C20.6154 6.51723 20.3078 6.47212 20.0145 6.53891C19.7213 6.6057 19.4635 6.77958 19.2918 7.02648L18.0972 8.73229C17.8312 9.11257 17.4719 9.41815 17.0539 9.61975C16.6359 9.82136 16.1731 9.91223 15.7099 9.88366L13.6276 9.75476C13.3284 9.73777 13.0335 9.83173 12.7993 10.0186C12.5651 10.2055 12.4081 10.4722 12.3583 10.7677L12.0221 12.8251C11.9457 13.2832 11.7535 13.7142 11.4637 14.0772C11.174 14.4403 10.7963 14.7232 10.3665 14.8993L8.43728 15.6822C8.15837 15.7947 7.93144 16.0072 7.80086 16.2781C7.67028 16.549 7.64546 16.8589 7.73123 17.1471L8.32083 19.1444C8.45046 19.5897 8.46445 20.0608 8.36148 20.513C8.25851 20.9652 8.04198 21.3838 7.73233 21.7291L6.33229 23.2782C6.13063 23.5004 6.01891 23.7897 6.01891 24.0897C6.01891 24.3898 6.13063 24.6791 6.33229 24.9012L7.73159 26.4496C8.04143 26.7948 8.25812 27.2133 8.36116 27.6656C8.4642 28.1178 8.45019 28.5889 8.32045 29.0343L7.73122 31.0323C7.64537 31.3205 7.67016 31.6303 7.80076 31.9011C7.93136 32.1719 8.15834 32.3842 8.43727 32.4965L10.3653 33.2787C10.7952 33.4551 11.1729 33.7384 11.4627 34.1016C11.7525 34.4648 11.9448 34.896 12.0214 35.3544L12.3572 37.411C12.4059 37.707 12.5626 37.9744 12.7971 38.1615C13.0315 38.3486 13.327 38.4421 13.6265 38.4239L15.7087 38.2958C16.1719 38.2663 16.6349 38.3566 17.053 38.558C17.4712 38.7594 17.8304 39.0651 18.0961 39.4457L19.2914 41.1537C19.4629 41.4007 19.7206 41.5747 20.0138 41.6415C20.3071 41.7083 20.6147 41.6631 20.8763 41.5148L22.6924 40.4945C23.0981 40.2676 23.5554 40.1488 24.0203 40.1495Z" fill="#D7C30E"/>
</g>
</g>
<defs>
<clipPath id="clip0_1_33">
<rect width="48" height="48" fill="white" transform="translate(0.0200195 0.0900269)"/>
</clipPath>
<clipPath id="clip1_1_33">
<rect width="48" height="48" fill="white" transform="translate(0.0200195 0.0900269)"/>
</clipPath>
</defs>
</svg>
